<?xml version="1.0" encoding="utf-8"?>
<!-- Generator: Adobe Illustrator 25.2.0, SVG Export Plug-In . SVG Version: 6.00 Build 0)  -->
<svg version="1.1" id="Layer_1" xmlns="http://www.w3.org/2000/svg" xmlns:xlink="http://www.w3.org/1999/xlink" x="0px" y="0px"
	 viewBox="0 0 1801.75 1162.83" style="enable-background:new 0 0 1801.75 1162.83;" xml:space="preserve">
<style type="text/css">
	.st0{fill:#0E2B5F;}
	.st1{clip-path:url(#SVGID_2_);}
	.st2{fill-rule:evenodd;clip-rule:evenodd;fill:#0E2B5F;}
	.st3{fill-rule:evenodd;clip-rule:evenodd;fill:#FFFFFF;}
	.st4{fill-rule:evenodd;clip-rule:evenodd;fill:#ED1B30;}
	.st5{clip-path:url(#SVGID_4_);}
</style>
<g>
	<g>
		<path class="st0" d="M1756.64,985.96c-24.88,0-45.12,20.24-45.12,45.12c0,24.88,20.24,45.12,45.12,45.12s45.12-20.24,45.12-45.12
			C1801.75,1006.2,1781.51,985.96,1756.64,985.96z M1790.66,1031.08c0,18.76-15.26,34.02-34.02,34.02s-34.02-15.26-34.02-34.02
			c0-18.76,15.26-34.02,34.02-34.02S1790.66,1012.32,1790.66,1031.08z"/>
		<path class="st0" d="M1776.02,1022.61c1.5-9.47-3.67-14.27-15.36-14.27h-16.46l-7.18,45.46h10.74l2.55-16.15h5.1l6.01,16.15h12.05
			l-7.39-18.11C1771.62,1033.24,1775.05,1028.73,1776.02,1022.61z M1765.48,1022.61c-0.66,4.18-3.74,6.4-8.91,6.4h-4.89l1.9-12.01
			h4.89C1764.08,1017,1766.11,1018.62,1765.48,1022.61z"/>
	</g>
	<g>
		<g>
			<path class="st0" d="M851.87,296.67c-54.07,28.42-105.86,56.87-159.1,83.22c-45.52,22.54-93.75,40.42-145.88,49.5
				c-34.8,6.06-69.33,6.66-102.82-4.92c-38.75-13.39-63.31-39.04-80.28-70.2c-7.99-14.67-13.38-30.37-19.8-45.64
				c-0.92-2.18-1.79-4.76-1.27-6.9c0.78-3.21,2.18-8.3,4.45-8.79c3.4-0.73,8.48,1.11,11.58,3.2c3.39,2.28,5.55,5.98,7.9,9.24
				c21.84,30.39,49.01,55.43,91.68,64.34c37.69,7.87,73.3,0.8,107.81-12.1c44.23-16.54,82.15-41.01,118.23-67.81
				c49.81-36.99,91.51-80.36,135.15-122.25c51.87-49.8,107.31-96.39,174.57-131.56c37.23-19.46,76.92-33.69,121.18-35.77
				c56.75-2.67,103.77,16.82,145.03,48.06c35.47,26.85,62.64,59.33,88.25,93.01c9.53,12.54,20.56,24.75,33.32,34.94
				c19.49,15.56,43.45,18.97,69.14,11.75c20.14-5.66,37.53-15.19,54.65-27.46c-8.48-3.95-16.06-7.32-23.47-10.96
				c-22.44-11-41.19-25.27-54.11-44.58c-3.71-5.54-7.33-11.27-1.01-17.07c6.29-5.77,13.87-5.61,22.11-3.01
				c15.65,4.94,32.7,7.74,46.87,14.76c15.93,7.9,29.61,19.2,43.66,29.61c4.39,3.25,6.97,5.46,13.93,4.51
				c6.41-0.88,14.55,1.42,20.38,4.45c31.45,16.35,62.57,33.16,93.47,50.27c9.27,5.13,18.15,11.09,25.91,17.76
				c9.5,8.16,9.47,14.12,2.14,23.83c-2.81,3.72-5.94,7.31-9.4,10.6c-6.73,6.41-14.86,7.89-23.25,2.67
				c-9.55-5.96-18.67-5.85-30.25-3.51c-27.36,5.52-55.36,8.77-83.03,13.27c-3.59,0.58-8.21,2.41-9.87,4.87
				c-17.75,26.32-43.75,45.66-71.99,63.46c-10.46,6.59-20.29,14.45-28.37,23.1c-25.14,26.92-53.17,50.04-93.75,59.41
				c-4.01,0.93-7.48,4.16-10.72,6.75c-30.87,24.62-53.28,54.49-73.85,85.51c-3.07,4.64-5.19,10.09-9.46,13.73
				c-13.68,11.67-28.09,22.88-50,19.87c-13.81-1.9-20.28-9.1-17.56-20.67c1.75-7.43,4.32-14.95,8.25-21.72
				c4.77-8.22,10.4-7.86,15.77-0.24c1.63,2.31,4.18,4.15,6.31,6.2c2.54-2.58,6.35-4.84,7.39-7.8c5.17-14.7,9.31-29.66,14.4-44.38
				c6.72-19.47,13.98-38.81,21.62-59.89c-10.97-2.58-21.77-5.64-32.85-7.58c-10.47-1.84-18.38,2.09-25.48,9.02
				c-47.67,46.58-60.94,100.09-46.9,159.74c4.97,21.11,7.63,42.6,11.92,63.83c0.52,2.58,4.18,5.96,7.19,6.74
				c73.25,18.98,146.51,37.98,220.04,56.16c19.28,4.77,39.72,6.1,59.22,10.37c10.89,2.39,21.65,6.6,31.18,11.72
				c15.39,8.27,14.04,16.05-2.84,22.61c-22.56,8.77-45.93,10.07-69.31,3.37c-57.51-16.48-117.54-21.87-177.04-29.56
				c-28.92-3.73-58.11-5.94-87.15-9.03c-28.36-3.02-44.24-17.86-47.06-44.54c-3.71-35.09-8.66-70.2-23.46-103.18
				c-17.43-38.83-37.82-76.71-57.24-114.88c-1.33-2.61-4.83-5.17-8.03-6.26c-49.85-17.01-89.31-45.5-123.75-79.65
				C874.44,318.56,862.5,307.05,851.87,296.67z"/>
			<g>
				<defs>
					<path id="SVGID_1_" d="M851.87,296.67c-54.07,28.42-105.86,56.87-159.1,83.22c-45.52,22.54-93.75,40.42-145.88,49.5
						c-34.8,6.06-69.33,6.66-102.82-4.92c-38.75-13.39-63.31-39.04-80.28-70.2c-7.99-14.67-13.38-30.37-19.8-45.64
						c-0.92-2.18-1.79-4.76-1.27-6.9c0.78-3.21,2.18-8.3,4.45-8.79c3.4-0.73,8.48,1.11,11.58,3.2c3.39,2.28,5.55,5.98,7.9,9.24
						c21.84,30.39,49.01,55.43,91.68,64.34c37.69,7.87,73.3,0.8,107.81-12.1c44.23-16.54,82.15-41.01,118.23-67.81
						c49.81-36.99,91.51-80.36,135.15-122.25c51.87-49.8,107.31-96.39,174.57-131.56c37.23-19.46,76.92-33.69,121.18-35.77
						c56.75-2.67,103.77,16.82,145.03,48.06c35.47,26.85,62.64,59.33,88.25,93.01c9.53,12.54,20.56,24.75,33.32,34.94
						c19.49,15.56,43.45,18.97,69.14,11.75c20.14-5.66,37.53-15.19,54.65-27.46c-8.48-3.95-16.06-7.32-23.47-10.96
						c-22.44-11-41.19-25.27-54.11-44.58c-3.71-5.54-7.33-11.27-1.01-17.07c6.29-5.77,13.87-5.61,22.11-3.01
						c15.65,4.94,32.7,7.74,46.87,14.76c15.93,7.9,29.61,19.2,43.66,29.61c4.39,3.25,6.97,5.46,13.93,4.51
						c6.41-0.88,14.55,1.42,20.38,4.45c31.45,16.35,62.57,33.16,93.47,50.27c9.27,5.13,18.15,11.09,25.91,17.76
						c9.5,8.16,9.47,14.12,2.14,23.83c-2.81,3.72-5.94,7.31-9.4,10.6c-6.73,6.41-14.86,7.89-23.25,2.67
						c-9.55-5.96-18.67-5.85-30.25-3.51c-27.36,5.52-55.36,8.77-83.03,13.27c-3.59,0.58-8.21,2.41-9.87,4.87
						c-17.75,26.32-43.75,45.66-71.99,63.46c-10.46,6.59-20.29,14.45-28.37,23.1c-25.14,26.92-53.17,50.04-93.75,59.41
						c-4.01,0.93-7.48,4.16-10.72,6.75c-30.87,24.62-53.28,54.49-73.85,85.51c-3.07,4.64-5.19,10.09-9.46,13.73
						c-13.68,11.67-28.09,22.88-50,19.87c-13.81-1.9-20.28-9.1-17.56-20.67c1.75-7.43,4.32-14.95,8.25-21.72
						c4.77-8.22,10.4-7.86,15.77-0.24c1.63,2.31,4.18,4.15,6.31,6.2c2.54-2.58,6.35-4.84,7.39-7.8c5.17-14.7,9.31-29.66,14.4-44.38
						c6.72-19.47,13.98-38.81,21.62-59.89c-10.97-2.58-21.77-5.64-32.85-7.58c-10.47-1.84-18.38,2.09-25.48,9.02
						c-47.67,46.58-60.94,100.09-46.9,159.74c4.97,21.11,7.63,42.6,11.92,63.83c0.52,2.58,4.18,5.96,7.19,6.74
						c73.25,18.98,146.51,37.98,220.04,56.16c19.28,4.77,39.72,6.1,59.22,10.37c10.89,2.39,21.65,6.6,31.18,11.72
						c15.39,8.27,14.04,16.05-2.84,22.61c-22.56,8.77-45.93,10.07-69.31,3.37c-57.51-16.48-117.54-21.87-177.04-29.56
						c-28.92-3.73-58.11-5.94-87.15-9.03c-28.36-3.02-44.24-17.86-47.06-44.54c-3.71-35.09-8.66-70.2-23.46-103.18
						c-17.43-38.83-37.82-76.71-57.24-114.88c-1.33-2.61-4.83-5.17-8.03-6.26c-49.85-17.01-89.31-45.5-123.75-79.65
						C874.44,318.56,862.5,307.05,851.87,296.67z"/>
				</defs>
				<clipPath id="SVGID_2_">
					<use xlink:href="#SVGID_1_"  style="overflow:visible;"/>
				</clipPath>
				<g id="XMLID_113_" class="st1">
					<g id="XMLID_128_">
						<rect x="802.26" y="58.69" class="st2" width="563.34" height="278.45"/>
					</g>
					<g id="XMLID_127_">
						<polygon class="st3" points="962.38,229.19 971.01,251.86 997.15,243.4 981.74,263.14 1005.78,275.36 977.92,277.34 
							981.74,300.84 962.38,283.61 943.15,300.84 946.98,277.34 918.99,275.36 943.15,263.14 927.62,243.4 953.88,251.86 						"/>
					</g>
					<g id="XMLID_126_">
						<polygon class="st3" points="1246.77,269.98 1250.96,280.74 1263.41,276.67 1256.01,286.17 1267.48,291.92 1254.16,292.86 
							1256.01,304.03 1246.77,295.89 1237.65,304.03 1239.49,292.86 1226.18,291.92 1237.65,286.17 1230.37,276.67 1242.82,280.74 
													"/>
					</g>
					<g id="XMLID_125_">
						<polygon class="st3" points="1172.81,170.55 1176.87,181.31 1189.32,177.24 1181.93,186.74 1193.39,192.49 1180.08,193.43 
							1181.93,204.6 1172.81,196.45 1163.56,204.6 1165.41,193.43 1152.1,192.49 1163.56,186.74 1156.16,177.24 1168.61,181.31 
													"/>
					</g>
					<g id="XMLID_124_">
						<polygon class="st3" points="1246.77,102.56 1250.96,113.32 1263.41,109.24 1256.01,118.64 1267.48,124.49 1254.16,125.43 
							1256.01,136.61 1246.77,128.46 1237.65,136.61 1239.49,125.43 1226.18,124.49 1237.65,118.64 1230.37,109.24 1242.82,113.32 
													"/>
					</g>
					<g id="XMLID_123_">
						<polygon class="st3" points="1312.72,153.84 1316.78,164.6 1329.36,160.52 1321.84,169.93 1333.43,175.67 1320.11,176.71 
							1321.96,187.89 1312.72,179.74 1303.59,187.89 1305.44,176.71 1292.13,175.67 1303.59,169.93 1296.2,160.52 1308.65,164.6 
													"/>
					</g>
					<g id="XMLID_122_">
						<polygon class="st3" points="1276.47,204.18 1279.68,210.87 1288.19,211.39 1281.78,216.09 1283.75,223.09 1276.47,219.22 
							1269.2,223.09 1271.3,216.09 1264.76,211.39 1273.27,210.87 						"/>
					</g>
					<g id="XMLID_121_">
						<polygon class="st3" points="925.77,58.69 925.77,100.57 802.26,100.57 802.26,142.46 925.77,142.46 925.77,184.23 
							975.08,184.23 975.08,142.46 1098.72,142.46 1098.72,100.57 975.08,100.57 975.08,58.69 						"/>
					</g>
					<g id="XMLID_120_">
						<polygon class="st3" points="802.26,58.69 802.26,72.69 1065.56,184.23 1098.6,184.23 1098.6,170.24 835.42,58.69 						"/>
					</g>
					<g id="XMLID_119_">
						<polygon class="st3" points="1065.56,58.69 802.26,170.24 802.26,184.23 835.42,184.23 1098.6,72.69 1098.6,58.69 						"/>
					</g>
					<g id="XMLID_118_">
						<polygon class="st4" points="935.64,58.69 935.64,108.93 802.26,108.93 802.26,134 935.64,134 935.64,184.23 965.22,184.23 
							965.22,134 1098.6,134 1098.6,108.93 965.22,108.93 965.22,58.69 						"/>
					</g>
					<g>
						<path class="st4" d="M1076.53,58.69l-98.74,41.88h22.07l98.74-41.88H1076.53z M802.26,58.69L802.26,58.69v9.4l76.67,32.48H901
							L802.26,58.69z"/>
					</g>
					<g>
						<path class="st4" d="M999.86,142.46l98.86,41.78v-9.3l-76.8-32.48H999.86z M901,142.46L901,142.46l-98.74,41.78h22.07
							l98.86-41.78H901z"/>
					</g>
				</g>
			</g>
		</g>
		<g>
			<g>
				<path class="st0" d="M654.27,958.71c-0.92,3.93-2.46,8.37-4.61,13.32c-1.23,2.56-2.54,4.91-3.92,7.04
					c-1.38,2.14-2.84,4.31-4.38,6.53c-3.69,4.61-7.61,8.2-11.75,10.76c-2.3,1.54-4.69,2.69-7.14,3.46
					c-2.46,0.77-5.07,1.41-7.84,1.92c-8.91,1.02-16.9,0-23.97-3.07c-3.54-1.54-6.91-3.75-10.14-6.66c-3.23-2.9-6.3-6.4-9.22-10.5
					c-10.45,6.66-21.59,11.78-33.42,15.37c-11.83,3.59-23.82,5.38-35.95,5.38c-4.46,0-8.8-0.3-13.02-0.9
					c-4.23-0.6-8.49-1.49-12.79-2.69c-4.61-1.54-8.76-3.33-12.44-5.38c-3.69-2.05-7.37-4.27-11.06-6.66
					c-7.22-4.95-13.06-11.44-17.52-19.47c-4.3-7.51-6.68-16.82-7.14-27.92c-0.31-11.44,1.76-21.52,6.22-30.23
					c4.45-8.71,10.29-16.14,17.52-22.29c6.76-5.64,14.9-9.99,24.43-13.06c9.52-3.41,18.67-5.12,27.42-5.12
					c6.3,0,12.68,1.03,19.13,3.07c6.14,1.71,11.6,4.44,16.36,8.2c2.15,2.22,4.26,4.48,6.34,6.79s3.8,4.83,5.19,7.56
					c3.23,5.98,4.84,12.21,4.84,18.7c0,14.18-4.07,24.76-12.21,31.76c-8.3,7.52-18.44,11.27-30.42,11.27
					c-7.22,0-13.06-1.96-17.52-5.89c-4.76-4.44-7.14-10.5-7.14-18.19c0-7.34,2.77-12.81,8.3-16.39c5.22-3.59,10.75-5.38,16.59-5.38
					c5.07,0,9.52,1.02,13.37,3.07c4.15,2.56,7.99,5.38,11.52,8.45c0-0.51,0.08-1.11,0.23-1.79v-1.28c0-4.1-1-7.77-3-11.01
					c-1.08-1.54-2.15-3.03-3.23-4.48c-1.08-1.45-2.31-2.77-3.69-3.97c-2.92-2.39-6.22-4.27-9.91-5.64
					c-3.23-1.37-6.68-2.05-10.37-2.05c-5.99,0-10.76,1.37-14.29,4.1c-4.3,3.59-7.76,7.34-10.37,11.27c-2.46,4.1-4.3,9.22-5.53,15.37
					c-0.61,3.07-1.12,5.98-1.5,8.71c-0.38,2.73-0.42,5.55-0.12,8.45c0.15,11.78,3.61,21.35,10.37,28.69
					c6.91,7.17,16.21,10.76,27.89,10.76c9.22,0,18.21-2.47,26.96-7.43c9.52-4.95,17.21-11.18,23.05-18.7
					c-0.15-0.51-0.23-1.02-0.23-1.54c0-0.51-0.15-1.03-0.46-1.54v-4.36c0.46-3.93,0.92-8.15,1.38-12.68
					c0.46-4.52,0.92-9.35,1.38-14.47c0.61-5.29,1-10.67,1.15-16.14c0.15-5.46,0.31-10.93,0.46-16.39c0-5.64-0.04-11.23-0.12-16.78
					c-0.08-5.55-0.27-10.97-0.58-16.26c-0.92-10.76-2.15-21.09-3.69-30.99c-2.61-15.2-7.53-26.38-14.75-33.56
					c-7.68-7.34-16.82-10.84-27.42-10.5c-2.92,0-5.65,0.3-8.18,0.9c-2.54,0.6-4.88,1.15-7.03,1.67c-4.92,2.05-9.14,4.53-12.67,7.43
					c-4,3.59-6.91,7.17-8.76,10.76c-2.3,4.44-3.46,8.71-3.46,12.81c0,1.2,0.38,2.22,1.15,3.07c0.46,0,0.96,0.17,1.5,0.51
					c0.54,0.34,1.04,0.6,1.5,0.77c0.77,0.68,1.69,1.62,2.77,2.82c1.23,1.2,1.84,3.07,1.84,5.64c0,7.17-2.3,12.21-6.91,15.11
					c-4.76,3.76-10.22,5.81-16.36,6.15c-8.15,0.68-14.52-1.96-19.13-7.94c-4.92-6.49-7.38-13.74-7.38-21.77
					c0-11.95,2.92-22.45,8.76-31.51c5.99-8.71,13.37-16.14,22.12-22.28c9.52-6.32,19.51-10.76,29.96-13.32
					c10.29-3.24,20.74-4.87,31.34-4.87c9.52,0,19.59,1.45,30.19,4.35c11.06,2.73,20.51,7,28.35,12.81
					c7.99,5.98,14.67,14.09,20.05,24.33c5.07,9.73,7.06,21.77,5.99,36.12c-0.31,1.88-0.54,4.27-0.69,7.17
					c-0.15,2.91-0.23,6.49-0.23,10.76c-0.46,4.44-0.69,8.97-0.69,13.58c0,4.61-0.15,9.57-0.46,14.86c0,5.29,0,10.72,0,16.26
					c0,5.55,0.23,11.32,0.69,17.29c0,5.81,0.23,11.23,0.69,16.26c0.46,5.04,0.92,10.12,1.38,15.24c1.07,8.88,3.07,16.91,5.99,24.08
					c2.46,6.49,5.61,10.08,9.45,10.76c3.84,0.51,7.45-0.34,10.83-2.56c2-1.19,3.69-2.39,5.07-3.59c1.38-1.19,2.77-2.39,4.15-3.59
					L654.27,958.71z"/>
				<path class="st0" d="M736.54,740.73c-1.69,10.76-2.92,21.43-3.69,32.02c2.46-2.22,5.22-4.48,8.3-6.79
					c3.07-2.31,6.53-4.57,10.37-6.79c3.84-2.22,8.07-4.23,12.67-6.02c4.61-1.79,9.68-3.37,15.21-4.74
					c9.37-2.05,19.36-2.31,29.96-0.77c9.99,1.2,18.82,4.53,26.5,9.99c4.15,2.56,7.84,5.47,11.06,8.71c3.23,3.25,5.99,7,8.3,11.27
					c4.91,8.37,7.37,17.93,7.37,28.69c0,10.25-1.46,19.21-4.38,26.9c-2.92,8.03-7.14,14.77-12.67,20.24
					c-5.84,6.15-12.21,10.59-19.13,13.32c-6.91,3.07-14.6,4.61-23.05,4.61c-17.05-0.17-29.65-4.01-37.8-11.53
					c-8.61-7.34-13.14-16.22-13.6-26.64c-0.62-9.56,1.53-16.65,6.45-21.26c4.76-4.61,10.45-7.26,17.05-7.94
					c7.84-0.17,13.52,1.79,17.05,5.89c3.69,5.29,5.68,11.19,5.99,17.67c0.31,1.54,0.15,3.59-0.46,6.15
					c-0.31,1.2-0.58,2.31-0.81,3.33c-0.23,1.02-0.5,1.88-0.81,2.56c-1.23,2.56-2.23,4.44-3,5.64c4.3,0,8.45-1.28,12.44-3.84
					c3.38-1.88,6.3-5.12,8.76-9.73c3.07-4.44,4.61-11.01,4.61-19.72c0-5.46-1.23-10.41-3.69-14.86c-2.3-4.95-5.23-8.54-8.76-10.76
					c-4-2.9-8.15-4.87-12.44-5.89c-2.46-0.68-4.95-1.06-7.49-1.15c-2.54-0.08-5.03-0.13-7.49-0.13c-2.3,0-5.69,0.77-10.14,2.31
					c-2.15,0.86-4.34,1.79-6.57,2.82c-2.23,1.02-4.49,2.22-6.8,3.59c-2.3,1.2-4.57,2.43-6.8,3.71c-2.23,1.28-4.49,2.78-6.8,4.48
					c-2.31,1.54-4.46,2.86-6.45,3.97c-2,1.11-3.84,2.35-5.53,3.71c-1.69,20.32-2.15,39.96-1.38,58.91
					c0.31,9.57,0.61,18.66,0.92,27.28c0.31,8.62,0.69,16.69,1.15,24.21c0.61,7.68,1.19,14.77,1.73,21.26
					c0.54,6.49,1.11,12.47,1.73,17.93c0.61,5.47,1.19,10.08,1.73,13.83c0.54,3.76,1.04,6.58,1.5,8.45
					c1.07,7.34,3.61,13.15,7.61,17.42c4.91,4.96,8.76,8.03,11.52,9.22h-96.79c3.23-0.68,6.99-2.99,11.29-6.92
					c4.15-3.75,6.76-9.65,7.84-17.67c0.61-3.93,1.19-8.28,1.73-13.06c0.54-4.78,1.11-10.16,1.73-16.14
					c0.61-5.8,1.15-11.87,1.61-18.19c0.46-6.32,0.69-12.64,0.69-18.95c0.61-6.83,0.92-13.7,0.92-20.62c0-6.92,0-13.96,0-21.13
					c0-7-0.08-13.92-0.23-20.75c-0.15-6.83-0.38-13.49-0.69-19.98c0-6.49-0.15-12.64-0.46-18.44c-0.31-5.8-0.69-11.44-1.15-16.91
					c-1.69-10.93-3.08-19.47-4.15-25.62c-1.69-7.68-3.92-13.32-6.68-16.91c-1.38-1.7-3.11-3.46-5.19-5.25
					c-2.07-1.79-4.49-3.46-7.26-4.99H736.54z"/>
				<path class="st0" d="M1083.38,871.62c0,18.44-2.54,35.26-7.61,50.46c-5.53,16.23-12.67,30.14-21.43,41.75
					c-9.22,11.78-19.9,21.09-32.03,27.92c-11.98,6.83-25.04,10.25-39.18,10.25c-13.98,0-26.96-3.41-38.95-10.25
					c-12.6-7.17-23.28-16.48-32.03-27.92c-8.76-11.61-15.9-25.36-21.43-41.24c-5.38-15.54-8.07-32.53-8.07-50.97
					s2.69-35.43,8.07-50.97c5.53-16.22,12.68-30.05,21.43-41.5c8.76-11.61,19.28-21,31.57-28.18c11.98-6.83,25.12-10.25,39.41-10.25
					c13.83,0,26.81,3.42,38.95,10.25c12.6,7.17,23.28,16.57,32.03,28.18c9.06,11.44,16.13,25.27,21.2,41.5
					C1080.69,836.19,1083.38,853.18,1083.38,871.62z M1024.85,871.62c0-7.17-0.27-14.26-0.81-21.26c-0.54-7-1.35-13.74-2.42-20.23
					c-2-12.81-4.99-24.25-8.99-34.32c-3.69-9.56-8.3-17.16-13.83-22.8c-5.69-5.64-11.29-8.45-16.82-8.45
					c-5.99,0-11.52,2.82-16.59,8.45c-5.53,5.64-10.06,13.24-13.6,22.8c-2,4.96-3.77,10.25-5.3,15.88
					c-1.54,5.64-2.92,11.78-4.15,18.44c-1.08,6.49-1.92,13.24-2.54,20.23c-0.62,7-0.92,14.09-0.92,21.26
					c0,14.34,1.15,28.18,3.46,41.5c1.23,6.66,2.61,12.77,4.15,18.31c1.53,5.55,3.3,10.89,5.3,16.01
					c3.53,9.91,7.99,17.67,13.37,23.31c5.22,5.64,10.83,8.45,16.82,8.45c5.53,0,11.14-2.82,16.82-8.45
					c5.07-5.29,9.6-12.89,13.6-22.8c1.84-5.12,3.57-10.54,5.19-16.27c1.61-5.72,2.96-11.74,4.03-18.06
					c1.07-6.49,1.88-13.23,2.42-20.23C1024.58,886.39,1024.85,879.14,1024.85,871.62z"/>
				<path class="st0" d="M1225.35,831.92c-4.61,0.68-8.91,0.73-12.91,0.13c-4-0.6-7.84-2.01-11.52-4.23
					c-7.37-4.27-11.37-10.41-11.98-18.44c-0.62-8.54,0.46-14.34,3.23-17.42c3.23-3.41,7.61-5.12,13.14-5.12
					c5.53,0,9.52,1.88,11.98,5.64c2.61,4.44,3.92,7.26,3.92,8.45c0,1.54,0.38,3.33,1.15,5.38c0.92,2.56,2.15,4.01,3.69,4.35
					c2,0.34,4.15-0.77,6.45-3.33c2.15-3.07,3.07-8.2,2.77-15.37c-0.62-7-4.07-13.66-10.37-19.98c-6.15-5.8-16.06-9.05-29.73-9.73
					c-12.44-0.17-22.2,3.07-29.27,9.73c-7.22,7.17-10.99,15.11-11.29,23.82c-0.46,4.61,1.69,10.59,6.45,17.93
					c2.15,3.76,5.8,7.73,10.95,11.91c5.15,4.19,11.64,8.93,19.47,14.22l31.8,21c10.29,6.83,18.51,13.32,24.66,19.47
					c6.6,7.34,11.44,14,14.52,19.98c3.69,6.15,5.91,12.3,6.68,18.44c0.77,6.83,0.92,12.47,0.46,16.91
					c-1.69,11.78-5.46,21.94-11.29,30.48c-6.15,8.71-13.68,15.88-22.59,21.52c-8.91,5.47-19.05,9.48-30.42,12.04
					c-11.52,2.56-23.2,3.5-35.03,2.82c-12.29-0.34-22.82-2.65-31.57-6.92c-9.07-4.44-16.29-9.65-21.66-15.62
					c-5.84-6.49-9.76-13.23-11.75-20.24c-2.46-7.17-3.38-14.6-2.77-22.28c0.15-6.83,1.69-13.06,4.61-18.7
					c2.77-4.95,5.99-8.97,9.68-12.04c3.53-3.07,7.37-5.04,11.52-5.89c5.38-1.03,9.6-1.19,12.67-0.51c4.3,0.86,8.07,2.56,11.29,5.12
					c3.23,2.73,5.45,5.47,6.68,8.2c0.46,1.71,0.96,3.37,1.5,5c0.54,1.63,0.81,3.2,0.81,4.74c0.92,3.25,1.07,6.24,0.46,8.96
					c-0.77,6.49-3.54,11.62-8.3,15.37c-4.76,4.1-9.3,6.24-13.6,6.4c-4.3,0.34-7.76-0.6-10.37-2.82c-2.46-1.88-3.92-4.27-4.38-7.17
					c-0.31-0.68-0.54-1.49-0.69-2.43c-0.15-0.94-0.31-1.75-0.46-2.43c-0.77-1.54-1.38-2.47-1.84-2.82c-0.62,0-1.46,0.34-2.54,1.02
					c-1.38,0.51-1.77,2.56-1.15,6.15c0.15,8.37,3.99,16.05,11.52,23.05c7.84,7.17,17.05,11.61,27.65,13.32
					c14.75,2.91,26.65,1.71,35.72-3.59c4.3-2.39,8.07-5.46,11.29-9.22c3.23-3.75,5.99-7.77,8.3-12.04c0.77-1.54,1.38-4.01,1.84-7.43
					c0.61-3.75,0.54-7.6-0.23-11.53c-1.38-4.78-3.69-9.65-6.91-14.6c-3.23-5.29-8.53-10.25-15.9-14.86l-29.5-18.95
					c-12.29-7.69-23.2-16.82-32.73-27.41c-9.07-10.07-14.75-22.2-17.05-36.37c-1.69-11.44-0.54-22.2,3.46-32.27
					c3.84-10.41,9.68-18.95,17.52-25.62c7.99-7.51,17.28-13.15,27.89-16.91c10.75-3.93,22.36-5.89,34.8-5.89
					c10.91,0,20.13,1.37,27.66,4.1c7.68,2.91,13.9,6.49,18.67,10.76c5.38,4.96,8.99,10.08,10.83,15.37
					c1.99,5.64,3.3,11.19,3.92,16.65c0.31,4.27-0.15,8.45-1.38,12.55c-1.38,4.61-3.15,8.88-5.3,12.81
					c-2.77,4.44-6.15,8.03-10.14,10.76c-2.15,1.71-4.42,2.95-6.8,3.71C1231.15,830.77,1228.42,831.41,1225.35,831.92z"/>
				<path class="st0" d="M1409.72,831.92c-4.61,0.68-8.91,0.73-12.91,0.13c-4-0.6-7.84-2.01-11.52-4.23
					c-7.37-4.27-11.37-10.41-11.98-18.44c-0.62-8.54,0.46-14.34,3.23-17.42c3.23-3.41,7.61-5.12,13.14-5.12
					c5.53,0,9.52,1.88,11.98,5.64c2.61,4.44,3.92,7.26,3.92,8.45c0,1.54,0.38,3.33,1.15,5.38c0.92,2.56,2.15,4.01,3.69,4.35
					c2,0.34,4.15-0.77,6.45-3.33c2.15-3.07,3.07-8.2,2.77-15.37c-0.62-7-4.07-13.66-10.37-19.98c-6.15-5.8-16.06-9.05-29.73-9.73
					c-12.44-0.17-22.2,3.07-29.27,9.73c-7.22,7.17-10.99,15.11-11.29,23.82c-0.46,4.61,1.69,10.59,6.45,17.93
					c2.15,3.76,5.8,7.73,10.95,11.91c5.15,4.19,11.64,8.93,19.47,14.22l31.8,21c10.29,6.83,18.51,13.32,24.66,19.47
					c6.6,7.34,11.44,14,14.52,19.98c3.69,6.15,5.91,12.3,6.68,18.44c0.77,6.83,0.92,12.47,0.46,16.91
					c-1.69,11.78-5.46,21.94-11.29,30.48c-6.15,8.71-13.68,15.88-22.59,21.52c-8.91,5.47-19.05,9.48-30.42,12.04
					c-11.52,2.56-23.2,3.5-35.03,2.82c-12.29-0.34-22.82-2.65-31.57-6.92c-9.07-4.44-16.29-9.65-21.66-15.62
					c-5.84-6.49-9.76-13.23-11.75-20.24c-2.46-7.17-3.38-14.6-2.77-22.28c0.15-6.83,1.69-13.06,4.61-18.7
					c2.77-4.95,5.99-8.97,9.68-12.04c3.53-3.07,7.37-5.04,11.52-5.89c5.38-1.03,9.6-1.19,12.67-0.51c4.3,0.86,8.07,2.56,11.29,5.12
					c3.23,2.73,5.45,5.47,6.68,8.2c0.46,1.71,0.96,3.37,1.5,5c0.54,1.63,0.81,3.2,0.81,4.74c0.92,3.25,1.07,6.24,0.46,8.96
					c-0.77,6.49-3.54,11.62-8.3,15.37c-4.76,4.1-9.3,6.24-13.6,6.4c-4.3,0.34-7.76-0.6-10.37-2.82c-2.46-1.88-3.92-4.27-4.38-7.17
					c-0.31-0.68-0.54-1.49-0.69-2.43c-0.16-0.94-0.31-1.75-0.46-2.43c-0.77-1.54-1.38-2.47-1.84-2.82c-0.62,0-1.46,0.34-2.54,1.02
					c-1.38,0.51-1.77,2.56-1.15,6.15c0.15,8.37,3.99,16.05,11.52,23.05c7.84,7.17,17.05,11.61,27.66,13.32
					c14.75,2.91,26.65,1.71,35.72-3.59c4.3-2.39,8.07-5.46,11.29-9.22c3.23-3.75,5.99-7.77,8.3-12.04c0.77-1.54,1.38-4.01,1.84-7.43
					c0.61-3.75,0.54-7.6-0.23-11.53c-1.38-4.78-3.69-9.65-6.91-14.6c-3.23-5.29-8.53-10.25-15.9-14.86l-29.5-18.95
					c-12.29-7.69-23.2-16.82-32.73-27.41c-9.07-10.07-14.75-22.2-17.05-36.37c-1.69-11.44-0.54-22.2,3.46-32.27
					c3.84-10.41,9.68-18.95,17.52-25.62c7.99-7.51,17.28-13.15,27.89-16.91c10.75-3.93,22.36-5.89,34.8-5.89
					c10.91,0,20.13,1.37,27.65,4.1c7.68,2.91,13.9,6.49,18.67,10.76c5.38,4.96,8.99,10.08,10.83,15.37
					c1.99,5.64,3.3,11.19,3.92,16.65c0.31,4.27-0.15,8.45-1.38,12.55c-1.38,4.61-3.15,8.88-5.3,12.81
					c-2.77,4.44-6.15,8.03-10.14,10.76c-2.15,1.71-4.42,2.95-6.8,3.71C1415.51,830.77,1412.79,831.41,1409.72,831.92z"/>
				<path class="st0" d="M1700.79,958.71c-0.92,3.93-2.46,8.37-4.61,13.32c-1.23,2.56-2.54,4.91-3.92,7.04
					c-1.38,2.14-2.84,4.31-4.38,6.53c-3.69,4.61-7.61,8.2-11.75,10.76c-2.3,1.54-4.69,2.69-7.14,3.46
					c-2.46,0.77-5.07,1.41-7.84,1.92c-8.91,1.02-16.9,0-23.97-3.07c-3.54-1.54-6.91-3.75-10.14-6.66c-3.23-2.9-6.3-6.4-9.22-10.5
					c-10.45,6.66-21.59,11.78-33.42,15.37c-11.83,3.59-23.82,5.38-35.95,5.38c-4.46,0-8.8-0.3-13.02-0.9
					c-4.23-0.6-8.49-1.49-12.79-2.69c-4.61-1.54-8.76-3.33-12.44-5.38c-3.69-2.05-7.37-4.27-11.06-6.66
					c-7.22-4.95-13.06-11.44-17.52-19.47c-4.3-7.51-6.68-16.82-7.14-27.92c-0.31-11.44,1.76-21.52,6.22-30.23
					c4.45-8.71,10.29-16.14,17.52-22.29c6.76-5.64,14.9-9.99,24.43-13.06c9.52-3.41,18.67-5.12,27.42-5.12
					c6.3,0,12.68,1.03,19.13,3.07c6.14,1.71,11.6,4.44,16.36,8.2c2.15,2.22,4.26,4.48,6.34,6.79c2.07,2.31,3.8,4.83,5.19,7.56
					c3.23,5.98,4.84,12.21,4.84,18.7c0,14.18-4.07,24.76-12.21,31.76c-8.3,7.52-18.44,11.27-30.42,11.27
					c-7.22,0-13.06-1.96-17.52-5.89c-4.76-4.44-7.14-10.5-7.14-18.19c0-7.34,2.77-12.81,8.3-16.39c5.22-3.59,10.75-5.38,16.59-5.38
					c5.07,0,9.52,1.02,13.37,3.07c4.15,2.56,7.99,5.38,11.52,8.45c0-0.51,0.08-1.11,0.23-1.79v-1.28c0-4.1-1-7.77-3-11.01
					c-1.08-1.54-2.15-3.03-3.23-4.48c-1.08-1.45-2.31-2.77-3.69-3.97c-2.92-2.39-6.22-4.27-9.91-5.64
					c-3.23-1.37-6.68-2.05-10.37-2.05c-5.99,0-10.76,1.37-14.29,4.1c-4.3,3.59-7.76,7.34-10.37,11.27c-2.46,4.1-4.3,9.22-5.53,15.37
					c-0.62,3.07-1.12,5.98-1.5,8.71c-0.38,2.73-0.42,5.55-0.11,8.45c0.15,11.78,3.61,21.35,10.37,28.69
					c6.91,7.17,16.21,10.76,27.89,10.76c9.22,0,18.21-2.47,26.96-7.43c9.52-4.95,17.21-11.18,23.05-18.7
					c-0.15-0.51-0.23-1.02-0.23-1.54c0-0.51-0.15-1.03-0.46-1.54v-4.36c0.46-3.93,0.92-8.15,1.38-12.68
					c0.46-4.52,0.92-9.35,1.38-14.47c0.61-5.29,1-10.67,1.15-16.14c0.15-5.46,0.31-10.93,0.46-16.39c0-5.64-0.04-11.23-0.12-16.78
					c-0.08-5.55-0.27-10.97-0.58-16.26c-0.92-10.76-2.15-21.09-3.69-30.99c-2.61-15.2-7.53-26.38-14.75-33.56
					c-7.68-7.34-16.82-10.84-27.42-10.5c-2.92,0-5.65,0.3-8.18,0.9c-2.54,0.6-4.88,1.15-7.03,1.67c-4.92,2.05-9.14,4.53-12.67,7.43
					c-4,3.59-6.91,7.17-8.76,10.76c-2.3,4.44-3.46,8.71-3.46,12.81c0,1.2,0.38,2.22,1.15,3.07c0.46,0,0.96,0.17,1.5,0.51
					c0.54,0.34,1.04,0.6,1.5,0.77c0.77,0.68,1.69,1.62,2.77,2.82c1.23,1.2,1.84,3.07,1.84,5.64c0,7.17-2.3,12.21-6.91,15.11
					c-4.76,3.76-10.22,5.81-16.36,6.15c-8.15,0.68-14.52-1.96-19.13-7.94c-4.92-6.49-7.38-13.74-7.38-21.77
					c0-11.95,2.92-22.45,8.76-31.51c5.99-8.71,13.37-16.14,22.12-22.28c9.52-6.32,19.51-10.76,29.96-13.32
					c10.29-3.24,20.74-4.87,31.34-4.87c9.52,0,19.59,1.45,30.19,4.35c11.06,2.73,20.51,7,28.35,12.81
					c7.99,5.98,14.67,14.09,20.05,24.33c5.07,9.73,7.06,21.77,5.99,36.12c-0.31,1.88-0.54,4.27-0.69,7.17
					c-0.15,2.91-0.23,6.49-0.23,10.76c-0.46,4.44-0.69,8.97-0.69,13.58c0,4.61-0.15,9.57-0.46,14.86c0,5.29,0,10.72,0,16.26
					c0,5.55,0.23,11.32,0.69,17.29c0,5.81,0.23,11.23,0.69,16.26c0.46,5.04,0.92,10.12,1.38,15.24c1.07,8.88,3.07,16.91,5.99,24.08
					c2.46,6.49,5.61,10.08,9.45,10.76c3.84,0.51,7.45-0.34,10.83-2.56c2-1.19,3.69-2.39,5.07-3.59c1.38-1.19,2.77-2.39,4.15-3.59
					L1700.79,958.71z"/>
				<g>
					<path class="st0" d="M143.67,597.24c-5.09-5.84-10.76-11.11-17.07-15.53c-11.89-8.33-16.37-20.09-16.13-33.95
						c0.49-28.27,1.24-56.54,1.92-84.81c0.19-8.1,0.5-16.19,0.72-24.28c0.04-1.59,0.29-2.68,1.98-3.67
						c3.21-1.88,4.98-17.74,1.89-19.22c-3.99-1.92-5.67-4.31-6.04-8.46c-0.13-1.49-1.99-2.2-3.38-2.91
						c-4.6-2.37-9.47-3.89-14.53-4.86c-0.8-0.15-1.88,0.23-2.29-0.94c-3.86,0-7.71,0-11.57,0c-3.86,0-7.71,0-11.57,0
						c-0.41,1.17-1.49,0.78-2.29,0.94c-5.07,0.97-9.93,2.5-14.53,4.86c-1.39,0.71-3.25,1.42-3.38,2.91
						c-0.37,4.15-2.05,6.54-6.04,8.46c-3.08,1.48-1.32,17.34,1.89,19.22c1.69,0.99,1.94,2.08,1.98,3.67
						c0.22,8.1,0.53,16.19,0.72,24.28c0.67,28.27,1.43,56.54,1.92,84.81c0.24,13.86-4.24,25.62-16.13,33.95
						c-6.31,4.42-11.98,9.69-17.07,15.53C3.1,610.51-0.11,626.22,0,643.4c0.62,96.93,0.92,193.87,1.32,290.8
						c0.08,18.5,0.13,36.97,2.91,55.37c2.02,13.35,8.49,21.72,21.91,24.78c14.97,3.41,30.13,4.6,45.4,5c2.54,0,5.08,0,7.63,0
						c2.54,0,5.08,0,7.63,0c15.27-0.4,30.43-1.59,45.4-5c13.42-3.06,19.89-11.43,21.91-24.78c2.79-18.4,2.84-36.87,2.91-55.37
						c0.4-96.93,0.7-193.87,1.32-290.8C158.45,626.22,155.25,610.51,143.67,597.24z"/>
					<g>
						<defs>
							<path id="SVGID_3_" d="M143.67,597.24c-5.09-5.84-10.76-11.11-17.07-15.53c-11.89-8.33-16.37-20.09-16.13-33.95
								c0.49-28.27,1.24-56.54,1.92-84.81c0.19-8.1,0.5-16.19,0.72-24.28c0.04-1.59,0.29-2.68,1.98-3.67
								c3.21-1.88,4.98-17.74,1.89-19.22c-3.99-1.92-5.67-4.31-6.04-8.46c-0.13-1.49-1.99-2.2-3.38-2.91
								c-4.6-2.37-9.47-3.89-14.53-4.86c-0.8-0.15-1.88,0.23-2.29-0.94c-3.86,0-7.71,0-11.57,0c-3.86,0-7.71,0-11.57,0
								c-0.41,1.17-1.49,0.78-2.29,0.94c-5.07,0.97-9.93,2.5-14.53,4.86c-1.39,0.71-3.25,1.42-3.38,2.91
								c-0.37,4.15-2.05,6.54-6.04,8.46c-3.08,1.48-1.32,17.34,1.89,19.22c1.69,0.99,1.94,2.08,1.98,3.67
								c0.22,8.1,0.53,16.19,0.72,24.28c0.67,28.27,1.43,56.54,1.92,84.81c0.24,13.86-4.24,25.62-16.13,33.95
								c-6.31,4.42-11.98,9.69-17.07,15.53C3.1,610.51-0.11,626.22,0,643.4c0.62,96.93,0.92,193.87,1.32,290.8
								c0.08,18.5,0.13,36.97,2.91,55.37c2.02,13.35,8.49,21.72,21.91,24.78c14.97,3.41,30.13,4.6,45.4,5c2.54,0,5.08,0,7.63,0
								c2.54,0,5.08,0,7.63,0c15.27-0.4,30.43-1.59,45.4-5c13.42-3.06,19.89-11.43,21.91-24.78c2.79-18.4,2.84-36.87,2.91-55.37
								c0.4-96.93,0.7-193.87,1.32-290.8C158.45,626.22,155.25,610.51,143.67,597.24z"/>
						</defs>
						<clipPath id="SVGID_4_">
							<use xlink:href="#SVGID_3_"  style="overflow:visible;"/>
						</clipPath>
						<g id="XMLID_97_" class="st5">
							<g id="XMLID_112_">
								<rect x="-61.27" y="569.22" class="st2" width="219.01" height="400.05"/>
							</g>
							<g id="XMLID_111_">
								<polygon class="st3" points="23.63,682.94 5.81,689.07 12.46,707.62 -3.06,696.68 -12.68,713.75 -14.24,693.97 
									-32.72,696.68 -19.17,682.94 -32.72,669.28 -14.24,672 -12.68,652.12 -3.06,669.28 12.46,658.25 5.81,676.9 								"/>
							</g>
							<g id="XMLID_110_">
								<polygon class="st3" points="-8.45,884.89 -16.91,887.87 -13.71,896.71 -21.18,891.46 -25.7,899.6 -26.44,890.14 
									-35.23,891.46 -28.82,884.89 -35.23,878.41 -26.44,879.73 -25.7,870.27 -21.18,878.41 -13.71,873.25 -16.91,882.09 								
									"/>
							</g>
							<g id="XMLID_109_">
								<polygon class="st3" points="69.76,832.37 61.29,835.26 64.5,844.1 57.02,838.84 52.5,846.99 51.77,837.53 42.98,838.84 
									49.38,832.37 42.98,825.8 51.77,827.11 52.5,817.66 57.02,825.8 64.5,820.55 61.29,829.39 								"/>
							</g>
							<g id="XMLID_108_">
								<polygon class="st3" points="123.23,884.89 114.77,887.87 117.98,896.71 110.58,891.46 105.98,899.6 105.24,890.14 
									96.45,891.46 102.86,884.89 96.45,878.41 105.24,879.73 105.98,870.27 110.58,878.41 117.98,873.25 114.77,882.09 								
									"/>
							</g>
							<g id="XMLID_107_">
								<polygon class="st3" points="82.9,931.72 74.44,934.61 77.64,943.54 70.25,938.2 65.73,946.43 64.91,936.98 56.12,938.29 
									62.53,931.72 56.12,925.25 64.91,926.56 65.73,917.1 70.25,925.25 77.64,919.99 74.44,928.83 								"/>
							</g>
							<g id="XMLID_106_">
								<polygon class="st3" points="43.3,905.99 38.05,908.26 37.64,914.3 33.94,909.75 28.43,911.15 31.47,905.99 28.43,900.82 
									33.94,902.31 37.64,897.67 38.05,903.71 								"/>
							</g>
							<g id="XMLID_105_">
								<polygon class="st3" points="157.74,656.94 124.79,656.94 124.79,569.22 91.85,569.22 91.85,656.94 58.99,656.94 
									58.99,691.95 91.85,691.95 91.85,779.76 124.79,779.76 124.79,691.95 157.74,691.95 								"/>
							</g>
							<g id="XMLID_104_">
								<polygon class="st3" points="157.74,569.22 146.73,569.22 58.99,756.21 58.99,779.67 70,779.67 157.74,592.77 								"/>
							</g>
							<g id="XMLID_103_">
								<polygon class="st3" points="157.74,756.21 70,569.22 58.99,569.22 58.99,592.77 146.73,779.67 157.74,779.67 								"/>
							</g>
							<g id="XMLID_102_">
								<polygon class="st4" points="157.74,663.94 118.22,663.94 118.22,569.22 98.51,569.22 98.51,663.94 58.99,663.94 
									58.99,684.95 98.51,684.95 98.51,779.67 118.22,779.67 118.22,684.95 157.74,684.95 								"/>
							</g>
							<g>
								<path class="st4" d="M157.74,764l-32.94-70.12v15.67l32.94,70.12V764z M157.74,569.22L157.74,569.22h-7.39l-25.55,54.45
									v15.67L157.74,569.22z"/>
							</g>
							<g>
								<path class="st4" d="M91.85,709.55l-32.86,70.21h7.31l25.55-54.54V709.55z M91.85,639.34L91.85,639.34l-32.86-70.12v15.67
									l32.86,70.21V639.34z"/>
							</g>
						</g>
					</g>
				</g>
				<path class="st0" d="M389.57,821.28c-5.43-13.31-12.82-24.96-22.18-34.94c-5.05-5.2-10.2-9.72-15.44-13.57
					c-5.24-3.85-10.86-7.33-16.84-10.45c-12.17-5.82-24.7-9.98-37.62-12.48c7.11-6.24,13.94-13.42,20.49-21.53
					c6.74-8.11,13-17.47,18.81-28.08c2.99-4.99,5.61-10.24,7.86-15.76c2.24-5.51,4.3-10.97,6.18-16.38
					c3.74-10.61,8.5-36.64,7.74-48.69c-3.25-51.15-29.5-79.81-48.78-96.36c-48.33-41.5-115.08-45.86-195.58-11.84
					c-0.98,0.42-1.96,0.83-2.95,1.26c-0.27,11.77-0.6,23.53-0.8,35.3c-0.24,13.86,4.25,25.62,16.13,33.95
					c6.31,4.42,11.98,9.69,17.07,15.53c6.35,7.28,10.12,15.32,12.27,23.91c0.32-2.37,0.64-4.71,0.91-6.89
					c0.32-2.57,0.62-5.05,0.86-7.33c0.56-5.2,1.21-9.98,1.96-14.35c28.78-37.42,101.95-45.75,126.53,7.32
					c3.23,6.97,6.25,21.69,5.13,32.92c-1.5,12.9-4.96,26.21-10.39,39.94c-2.62,6.66-5.33,13-8.14,19.03
					c-2.81,6.04-6.08,11.75-9.83,17.16c-7.68,11.23-15.63,21.74-23.86,31.51c-4.12,4.79-8.47,9.1-13.05,12.95
					c-4.59,3.85-9.12,7.33-13.61,10.45c-13.66,9.78-24.89,20.49-33.69,32.13c-8.98,11.86-13.47,24.55-13.47,38.06
					c0,13.73,3.18,26.21,9.54,37.44c6.55,11.44,14.32,20.49,23.3,27.14c10.29,7.28,20.67,12.28,31.16,14.98
					c11.41,2.71,22.45,3.95,33.12,3.74c8.98-0.41,16.93-3.01,23.86-7.8c5.61-3.53,10.48-8.21,14.6-14.04
					c2.99-4.57,5.43-10.4,7.3-17.47c1.31-7.07,1.78-12.58,1.4-16.54c-0.56-11.65-5.34-21.73-14.32-30.26
					c-9.17-8.11-18.81-11.65-28.91-10.61c-2.99,0.42-5.85,1.09-8.56,2.03c-2.71,0.94-5.38,2.24-8,3.9
					c-4.87,3.12-8.8,6.86-11.79,11.23c-2.99,3.33-5.52,8.32-7.58,14.98c-1.12,5.2-1.31,11.13-0.56,17.78
					c-2.62,0-5.24-0.62-7.86-1.87c-3.75-1.66-6.74-3.64-8.98-5.93c-2.99-2.29-5.33-5.82-7.02-10.61c-1.87-4.57-2.81-9.98-2.81-16.22
					c0-7.9,1.77-15.08,5.33-21.53c3.37-6.65,8.04-12.58,14.04-17.78c5.98-4.57,13.19-8.22,21.61-10.92
					c7.86-2.7,16.75-4.06,26.67-4.06c8.79,0,18.62,1.56,29.48,4.68c4.87,1.46,9.59,3.43,14.18,5.93c4.58,2.5,8.93,5.3,13.05,8.42
					c8.42,6.66,15.06,15.5,19.93,26.52c5.24,10.82,7.86,23.71,7.86,38.69c0,12.48-2.62,24.54-7.86,36.19
					c-4.87,10.19-11.7,19.14-20.49,26.83c-8.61,7.91-18.43,13.73-29.48,17.47c-5.61,2.08-11.46,3.49-17.54,4.21
					c-6.08,0.73-12.31,1.09-18.67,1.09c-11.79,0-23.58-2.08-35.37-6.24c-10.11-3.95-20.31-9.67-30.6-17.16
					c-9.17-6.24-17.69-13.62-25.54-22.15c-3.71-3.91-6.91-7.78-9.6-11.6c-0.03-0.03-0.05-0.07-0.08-0.1
					c-1.13-1.61-1.88-3.26-2.87-4.88c-0.06,14.88-0.14,29.76-0.2,44.64c-0.06,13.2-0.14,26.37-1.17,39.52c2-2.65,3.2-4.85,3.38-6.17
					c0.01-0.06,0.08-0.18,0.08-0.23c2.62,1.87,7.47,5.33,10.46,7.31c2.99,1.98,6.36,3.9,10.11,5.77c3.93,2.08,8.83,4.24,11.79,5.62
					c3.02,1.4,7.86,3.74,12.07,5.62c7.88,3.51,17.31,6.04,27.79,8.74c9.54,2.29,19.83,3.43,30.88,3.43
					c16.65,0,32.93-3.12,48.84-9.36c15.34-5.82,29.66-14.56,42.95-26.21c12.54-10.61,23.21-24.65,32-42.12
					c7.86-16.85,11.79-36.19,11.79-58.03C397.99,850.61,395.19,835,389.57,821.28z"/>
			</g>
			<g>
				<path class="st0" d="M650.21,1159.24l11.83-96.08c0.19-1.64,1.06-2.47,2.59-2.47h15c1.63,0,2.3,0.82,2.02,2.47l-9.81,80.2
					c0,0.56,0.25,0.87,0.73,0.87h45.01c1.54,0,2.21,0.8,2.02,2.44l-1.6,12.56c-0.19,1.62-1.06,2.44-2.59,2.44h-63.18
					C650.69,1161.68,650.02,1160.86,650.21,1159.24z"/>
				<path class="st0" d="M834.7,1078.16h-45.15c-0.2,0-0.39,0.07-0.58,0.21c-0.2,0.14-0.29,0.35-0.29,0.63l-2.74,22.09
					c0,0.56,0.23,0.85,0.72,0.85h29.29c1.63,0,2.3,0.82,2.02,2.47l-1.44,12.54c-0.29,1.64-1.21,2.47-2.75,2.47h-29.28
					c-0.58,0-0.87,0.28-0.87,0.87l-2.89,23.08c0,0.56,0.25,0.87,0.73,0.87h45.15c1.54,0,2.21,0.8,2.02,2.44l-1.58,12.56
					c-0.2,1.62-1.06,2.44-2.59,2.44h-63.33c-1.54,0-2.21-0.82-2.02-2.44l11.83-96.08c0.19-1.64,1.06-2.47,2.59-2.47h63.32
					c1.54,0,2.22,0.82,2.02,2.47l-1.58,12.54C837.11,1077.34,836.24,1078.16,834.7,1078.16z"/>
				<path class="st0" d="M879.93,1154.61c-5.82-5.49-8.73-12.8-8.73-21.93c0-2.3,0.09-4.09,0.29-5.33l4.04-32.33
					c0.87-7,3.12-13.22,6.77-18.6c3.66-5.38,8.42-9.56,14.29-12.49c5.87-2.91,12.41-4.39,19.62-4.39c6.54,0,12.27,1.22,17.16,3.69
					c4.91,2.44,8.69,5.85,11.33,10.17c2.64,4.32,3.97,9.23,3.97,14.72c0,0.96-0.09,2.3-0.29,4.04v0.28
					c-0.28,1.64-1.2,2.44-2.74,2.44h-15c-0.67,0-1.23-0.12-1.66-0.35c-0.43-0.23-0.61-0.52-0.5-0.8l0.14-1.01
					c0.09-0.47,0.14-1.15,0.14-2.02c0-4.04-1.29-7.33-3.9-9.88c-2.59-2.54-6.2-3.83-10.81-3.83c-5,0-9.22,1.62-12.62,4.84
					c-3.42,3.24-5.46,7.44-6.14,12.63l-4.04,33.46c-0.09,0.59-0.14,1.46-0.14,2.61c0,4.41,1.42,8.01,4.26,10.75
					c2.83,2.72,6.5,4.11,11.04,4.11c4.9,0,8.93-1.34,12.12-3.97c3.17-2.65,5.05-6.34,5.62-11.04l0.87-6.36
					c0-0.56-0.25-0.85-0.73-0.85h-14.85c-1.64,0-2.31-0.82-2.02-2.47l1.43-11.83c0.2-1.62,1.06-2.44,2.61-2.44h32.74
					c1.63,0,2.36,0.82,2.16,2.44l-2.3,18.34c-1.35,11.06-5.71,19.75-13.05,26.11c-7.36,6.34-16.52,9.51-27.48,9.51
					C893.61,1162.83,885.75,1160.08,879.93,1154.61z"/>
				<path class="st0" d="M1059.02,1078.16h-45.15c-0.2,0-0.39,0.07-0.58,0.21c-0.2,0.14-0.29,0.35-0.29,0.63l-2.74,22.09
					c0,0.56,0.23,0.85,0.72,0.85h29.29c1.63,0,2.3,0.82,2.02,2.47l-1.44,12.54c-0.29,1.64-1.21,2.47-2.75,2.47h-29.28
					c-0.58,0-0.87,0.28-0.87,0.87l-2.89,23.08c0,0.56,0.25,0.87,0.73,0.87h45.15c1.54,0,2.21,0.8,2.02,2.44l-1.58,12.56
					c-0.2,1.62-1.06,2.44-2.59,2.44h-63.33c-1.54,0-2.21-0.82-2.02-2.44l11.83-96.08c0.19-1.64,1.06-2.47,2.59-2.47h63.32
					c1.54,0,2.22,0.82,2.02,2.47l-1.58,12.54C1061.43,1077.34,1060.56,1078.16,1059.02,1078.16z"/>
				<path class="st0" d="M1093.93,1159.24l11.83-96.08c0.19-1.64,1.06-2.47,2.59-2.47h14.43c1.24,0,2.11,0.54,2.59,1.6l27.69,60.01
					c0.19,0.38,0.39,0.52,0.58,0.42c0.2-0.09,0.34-0.33,0.43-0.73l7.22-58.84c0.19-1.64,1.06-2.47,2.59-2.47h14.71
					c1.63,0,2.36,0.82,2.16,2.47l-11.82,96.08c-0.29,1.62-1.21,2.44-2.75,2.44h-14.28c-1.15,0-2.02-0.59-2.59-1.74l-27.7-60.58
					c-0.19-0.4-0.38-0.54-0.58-0.45c-0.19,0.09-0.34,0.35-0.43,0.73l-7.07,59.59c-0.28,1.62-1.2,2.44-2.74,2.44h-14.86
					C1094.41,1161.68,1093.74,1160.86,1093.93,1159.24z"/>
				<path class="st0" d="M1213.94,1159.24l11.83-96.08c0.19-1.64,1.06-2.47,2.59-2.47h34.33c9.63,0,17.27,2.39,22.94,7.14
					c5.67,4.77,8.51,11.13,8.51,19.11c0,0.96-0.09,2.42-0.28,4.34l-4.91,39.8c-0.68,6.08-2.75,11.41-6.21,16.01
					c-3.45,4.63-8.01,8.22-13.63,10.75c-5.62,2.56-11.9,3.83-18.82,3.83h-34.34C1214.43,1161.68,1213.76,1160.86,1213.94,1159.24z
					 M1236.31,1144.23h16.87c4.33,0,7.98-1.5,10.96-4.48s4.81-6.97,5.48-11.97l4.19-33.18c0.09-0.68,0.14-1.6,0.14-2.75
					c0-4.23-1.13-7.56-3.39-10.03c-2.25-2.44-5.41-3.66-9.45-3.66h-16.73c-0.58,0-0.87,0.28-0.87,0.85l-7.94,64.36
					C1235.58,1143.93,1235.83,1144.23,1236.31,1144.23z"/>
				<path class="st0" d="M1446.32,1159.66l-2.3-13.41c-0.09-0.49-0.33-0.73-0.73-0.73h-34.33c-0.49,0-0.77,0.23-0.87,0.73
					l-5.63,13.41c-0.56,1.34-1.53,2.02-2.86,2.02h-16.32c-1.24,0-1.88-0.52-1.88-1.6l0.31-1.15l41.67-96.22
					c0.59-1.34,1.55-2.02,2.89-2.02h20.5c1.34,0,2.16,0.68,2.44,2.02l18.03,96.22v0.59c0,0.68-0.21,1.2-0.66,1.57
					c-0.42,0.4-0.99,0.59-1.64,0.59h-16.29C1447.29,1161.68,1446.51,1161,1446.32,1159.66z M1415.61,1129.79h24.79
					c0.59,0,0.87-0.33,0.87-1.01l-7.21-44c-0.09-0.38-0.26-0.56-0.52-0.56c-0.23,0-0.45,0.19-0.63,0.56l-17.89,44
					C1414.93,1129.46,1415.12,1129.79,1415.61,1129.79z"/>
				<path class="st0" d="M1518.24,1154.75c-5.8-5.38-8.71-12.58-8.71-21.65c0-0.94,0.09-2.58,0.28-4.88l8.08-65.06
					c0.19-1.64,1.06-2.47,2.61-2.47h15c1.62,0,2.35,0.82,2.16,2.47l-8.08,65.2c-0.09,0.66-0.14,1.57-0.14,2.72
					c0,4.34,1.29,7.79,3.9,10.4c2.58,2.58,6.15,3.9,10.66,3.9c4.91,0,9.06-1.57,12.49-4.7c3.4-3.12,5.45-7.23,6.13-12.33l7.94-65.2
					c0.28-1.64,1.2-2.47,2.72-2.47h15c1.64,0,2.32,0.82,2.02,2.47l-7.91,65.06c-0.87,6.81-3.15,12.84-6.79,18.1
					c-3.66,5.24-8.41,9.3-14.2,12.19c-5.82,2.89-12.35,4.32-19.56,4.32C1531.93,1162.83,1524.06,1160.15,1518.24,1154.75z"/>
				<path class="st0" d="M1632.21,1155.76c-5.92-4.72-8.88-11.11-8.88-19.18c0-0.87,0.09-2.16,0.28-3.9l0.28-2.44
					c0.31-1.64,1.22-2.47,2.75-2.47h14.72c0.75,0,1.34,0.16,1.71,0.52c0.4,0.33,0.54,0.77,0.45,1.36l-0.28,2.02
					c-0.49,3.85,0.8,7.09,3.9,9.74c3.08,2.63,7.35,3.97,12.82,3.97c5.31,0,9.32-1.2,12.04-3.62c2.75-2.39,4.11-5.33,4.11-8.8
					c0-2.11-0.68-3.9-2.09-5.33c-1.39-1.43-3.26-2.72-5.61-3.83c-2.37-1.1-6.03-2.65-11.04-4.67c-5.68-2.14-10.42-4.23-14.2-6.29
					c-3.8-2.07-7.02-4.84-9.67-8.29c-2.65-3.45-3.97-7.75-3.97-12.84c0-0.66,0.09-1.88,0.28-3.59c1.06-8.76,5.05-15.71,11.97-20.85
					s15.5-7.72,25.69-7.72c6.62,0,12.47,1.13,17.52,3.38c5.05,2.28,8.95,5.45,11.69,9.53c2.75,4.09,4.11,8.88,4.11,14.35
					c0,0.77-0.09,2.02-0.28,3.76l-0.28,1.43c-0.21,1.64-1.08,2.47-2.61,2.47h-14.72c-1.62,0-2.35-0.49-2.16-1.46l0.14-1.43
					c0.49-4.04-0.7-7.47-3.52-10.31c-2.84-2.84-7.09-4.27-12.77-4.27c-4.81,0-8.59,1.1-11.32,3.26c-2.75,2.16-4.11,5.17-4.11,9.02
					c0,2.02,0.66,3.78,2.02,5.26c1.34,1.5,3.33,2.89,5.99,4.18c2.63,1.29,6.6,2.91,11.88,4.84c6.06,2.39,10.73,4.44,13.99,6.13
					c3.29,1.69,6.27,4.18,8.95,7.51c2.7,3.31,4.04,7.51,4.04,12.61c0,0.77-0.09,2.02-0.28,3.76c-0.68,5.87-2.75,11.01-6.2,15.43
					c-3.47,4.44-8.05,7.84-13.78,10.26c-5.73,2.39-12.19,3.59-19.39,3.59C1646.18,1162.83,1638.12,1160.48,1632.21,1155.76z"/>
			</g>
		</g>
	</g>
</g>
</svg>
